%
M48
M72
T01C0.0236
T02C0.0320
T03C0.0400
T04C0.0520
T05C0.1260
%
T01
X11680Y3430
X12805Y3430
T02
X18355Y5330
X18355Y4330
T03
X1555Y6430
X2555Y6430
X2555Y7430
X1555Y7430
X1555Y8430
X2555Y8430
X2555Y9430
X1555Y9430
X1555Y10430
X2555Y10430
T04
X4540Y13280
X6520Y13280
X8890Y13280
X10870Y13280
X13190Y13280
X15170Y13280
X18080Y10445
X18080Y8465
T05
X1680Y13305
X18340Y13305
M30
