G75*
%MOIN*%
%OFA0B0*%
%FSLAX24Y24*%
%IPPOS*%
%LPD*%
%AMOC8*
5,1,8,0,0,1.08239X$1,22.5*
%
%ADD10C,0.0000*%
%ADD11C,0.1300*%
%ADD12R,0.0860X0.1540*%
%ADD13R,0.3540X0.2540*%
%ADD14C,0.0820*%
%ADD15OC8,0.0560*%
%ADD16R,0.0571X0.0197*%
%ADD17R,0.0750X0.0670*%
%ADD18R,0.1040X0.0540*%
%ADD19OC8,0.0640*%
%ADD20R,0.0540X0.1040*%
D10*
X000180Y000180D02*
X000180Y014865D01*
X019865Y014865D01*
X019865Y000180D01*
X000180Y000180D01*
X001050Y013305D02*
X001052Y013355D01*
X001058Y013405D01*
X001068Y013454D01*
X001082Y013502D01*
X001099Y013549D01*
X001120Y013594D01*
X001145Y013638D01*
X001173Y013679D01*
X001205Y013718D01*
X001239Y013755D01*
X001276Y013789D01*
X001316Y013819D01*
X001358Y013846D01*
X001402Y013870D01*
X001448Y013891D01*
X001495Y013907D01*
X001543Y013920D01*
X001593Y013929D01*
X001642Y013934D01*
X001693Y013935D01*
X001743Y013932D01*
X001792Y013925D01*
X001841Y013914D01*
X001889Y013899D01*
X001935Y013881D01*
X001980Y013859D01*
X002023Y013833D01*
X002064Y013804D01*
X002103Y013772D01*
X002139Y013737D01*
X002171Y013699D01*
X002201Y013659D01*
X002228Y013616D01*
X002251Y013572D01*
X002270Y013526D01*
X002286Y013478D01*
X002298Y013429D01*
X002306Y013380D01*
X002310Y013330D01*
X002310Y013280D01*
X002306Y013230D01*
X002298Y013181D01*
X002286Y013132D01*
X002270Y013084D01*
X002251Y013038D01*
X002228Y012994D01*
X002201Y012951D01*
X002171Y012911D01*
X002139Y012873D01*
X002103Y012838D01*
X002064Y012806D01*
X002023Y012777D01*
X001980Y012751D01*
X001935Y012729D01*
X001889Y012711D01*
X001841Y012696D01*
X001792Y012685D01*
X001743Y012678D01*
X001693Y012675D01*
X001642Y012676D01*
X001593Y012681D01*
X001543Y012690D01*
X001495Y012703D01*
X001448Y012719D01*
X001402Y012740D01*
X001358Y012764D01*
X001316Y012791D01*
X001276Y012821D01*
X001239Y012855D01*
X001205Y012892D01*
X001173Y012931D01*
X001145Y012972D01*
X001120Y013016D01*
X001099Y013061D01*
X001082Y013108D01*
X001068Y013156D01*
X001058Y013205D01*
X001052Y013255D01*
X001050Y013305D01*
X017710Y013305D02*
X017712Y013355D01*
X017718Y013405D01*
X017728Y013454D01*
X017742Y013502D01*
X017759Y013549D01*
X017780Y013594D01*
X017805Y013638D01*
X017833Y013679D01*
X017865Y013718D01*
X017899Y013755D01*
X017936Y013789D01*
X017976Y013819D01*
X018018Y013846D01*
X018062Y013870D01*
X018108Y013891D01*
X018155Y013907D01*
X018203Y013920D01*
X018253Y013929D01*
X018302Y013934D01*
X018353Y013935D01*
X018403Y013932D01*
X018452Y013925D01*
X018501Y013914D01*
X018549Y013899D01*
X018595Y013881D01*
X018640Y013859D01*
X018683Y013833D01*
X018724Y013804D01*
X018763Y013772D01*
X018799Y013737D01*
X018831Y013699D01*
X018861Y013659D01*
X018888Y013616D01*
X018911Y013572D01*
X018930Y013526D01*
X018946Y013478D01*
X018958Y013429D01*
X018966Y013380D01*
X018970Y013330D01*
X018970Y013280D01*
X018966Y013230D01*
X018958Y013181D01*
X018946Y013132D01*
X018930Y013084D01*
X018911Y013038D01*
X018888Y012994D01*
X018861Y012951D01*
X018831Y012911D01*
X018799Y012873D01*
X018763Y012838D01*
X018724Y012806D01*
X018683Y012777D01*
X018640Y012751D01*
X018595Y012729D01*
X018549Y012711D01*
X018501Y012696D01*
X018452Y012685D01*
X018403Y012678D01*
X018353Y012675D01*
X018302Y012676D01*
X018253Y012681D01*
X018203Y012690D01*
X018155Y012703D01*
X018108Y012719D01*
X018062Y012740D01*
X018018Y012764D01*
X017976Y012791D01*
X017936Y012821D01*
X017899Y012855D01*
X017865Y012892D01*
X017833Y012931D01*
X017805Y012972D01*
X017780Y013016D01*
X017759Y013061D01*
X017742Y013108D01*
X017728Y013156D01*
X017718Y013205D01*
X017712Y013255D01*
X017710Y013305D01*
D11*
X018340Y013305D03*
X001680Y013305D03*
D12*
X004805Y005305D03*
X006805Y005305D03*
X009130Y005305D03*
X011130Y005305D03*
X013430Y005305D03*
X015430Y005305D03*
D13*
X014430Y009305D03*
X010130Y009305D03*
X005805Y009305D03*
D14*
X006520Y012890D02*
X006520Y013670D01*
X004540Y013670D02*
X004540Y012890D01*
X008890Y012890D02*
X008890Y013670D01*
X010870Y013670D02*
X010870Y012890D01*
X013190Y012890D02*
X013190Y013670D01*
X015170Y013670D02*
X015170Y012890D01*
X017690Y010445D02*
X018470Y010445D01*
X018470Y008465D02*
X017690Y008465D01*
D15*
X018355Y005330D03*
X018355Y004330D03*
D16*
X010012Y003257D03*
X010012Y003001D03*
X010012Y002745D03*
X010012Y002489D03*
X010012Y002233D03*
X010012Y001977D03*
X010012Y001721D03*
X010012Y001465D03*
X010012Y001209D03*
X010012Y000953D03*
X007748Y000953D03*
X007748Y001209D03*
X007748Y001465D03*
X007748Y001721D03*
X007748Y001977D03*
X007748Y002233D03*
X007748Y002489D03*
X007748Y002745D03*
X007748Y003001D03*
X007748Y003257D03*
D17*
X013930Y003115D03*
X015055Y003115D03*
X015055Y001995D03*
X013930Y001995D03*
D18*
X017680Y002055D03*
X017680Y002805D03*
D19*
X002555Y006430D03*
X001555Y006430D03*
X001555Y007430D03*
X002555Y007430D03*
X002555Y008430D03*
X001555Y008430D03*
X001555Y009430D03*
X002555Y009430D03*
X002555Y010430D03*
X001555Y010430D03*
D20*
X002305Y001430D03*
X003180Y001430D03*
X004055Y001430D03*
X004930Y001430D03*
M02*
