G75*
%MOIN*%
%OFA0B0*%
%FSLAX24Y24*%
%IPPOS*%
%LPD*%
%AMOC8*
5,1,8,0,0,1.08239X$1,22.5*
%
%ADD10C,0.0000*%
%ADD11R,0.1000X0.2000*%
D10*
X000180Y000180D02*
X000180Y014865D01*
X019865Y014865D01*
X019865Y000180D01*
X000180Y000180D01*
X001050Y013305D02*
X001052Y013355D01*
X001058Y013405D01*
X001068Y013454D01*
X001082Y013502D01*
X001099Y013549D01*
X001120Y013594D01*
X001145Y013638D01*
X001173Y013679D01*
X001205Y013718D01*
X001239Y013755D01*
X001276Y013789D01*
X001316Y013819D01*
X001358Y013846D01*
X001402Y013870D01*
X001448Y013891D01*
X001495Y013907D01*
X001543Y013920D01*
X001593Y013929D01*
X001642Y013934D01*
X001693Y013935D01*
X001743Y013932D01*
X001792Y013925D01*
X001841Y013914D01*
X001889Y013899D01*
X001935Y013881D01*
X001980Y013859D01*
X002023Y013833D01*
X002064Y013804D01*
X002103Y013772D01*
X002139Y013737D01*
X002171Y013699D01*
X002201Y013659D01*
X002228Y013616D01*
X002251Y013572D01*
X002270Y013526D01*
X002286Y013478D01*
X002298Y013429D01*
X002306Y013380D01*
X002310Y013330D01*
X002310Y013280D01*
X002306Y013230D01*
X002298Y013181D01*
X002286Y013132D01*
X002270Y013084D01*
X002251Y013038D01*
X002228Y012994D01*
X002201Y012951D01*
X002171Y012911D01*
X002139Y012873D01*
X002103Y012838D01*
X002064Y012806D01*
X002023Y012777D01*
X001980Y012751D01*
X001935Y012729D01*
X001889Y012711D01*
X001841Y012696D01*
X001792Y012685D01*
X001743Y012678D01*
X001693Y012675D01*
X001642Y012676D01*
X001593Y012681D01*
X001543Y012690D01*
X001495Y012703D01*
X001448Y012719D01*
X001402Y012740D01*
X001358Y012764D01*
X001316Y012791D01*
X001276Y012821D01*
X001239Y012855D01*
X001205Y012892D01*
X001173Y012931D01*
X001145Y012972D01*
X001120Y013016D01*
X001099Y013061D01*
X001082Y013108D01*
X001068Y013156D01*
X001058Y013205D01*
X001052Y013255D01*
X001050Y013305D01*
X017710Y013305D02*
X017712Y013355D01*
X017718Y013405D01*
X017728Y013454D01*
X017742Y013502D01*
X017759Y013549D01*
X017780Y013594D01*
X017805Y013638D01*
X017833Y013679D01*
X017865Y013718D01*
X017899Y013755D01*
X017936Y013789D01*
X017976Y013819D01*
X018018Y013846D01*
X018062Y013870D01*
X018108Y013891D01*
X018155Y013907D01*
X018203Y013920D01*
X018253Y013929D01*
X018302Y013934D01*
X018353Y013935D01*
X018403Y013932D01*
X018452Y013925D01*
X018501Y013914D01*
X018549Y013899D01*
X018595Y013881D01*
X018640Y013859D01*
X018683Y013833D01*
X018724Y013804D01*
X018763Y013772D01*
X018799Y013737D01*
X018831Y013699D01*
X018861Y013659D01*
X018888Y013616D01*
X018911Y013572D01*
X018930Y013526D01*
X018946Y013478D01*
X018958Y013429D01*
X018966Y013380D01*
X018970Y013330D01*
X018970Y013280D01*
X018966Y013230D01*
X018958Y013181D01*
X018946Y013132D01*
X018930Y013084D01*
X018911Y013038D01*
X018888Y012994D01*
X018861Y012951D01*
X018831Y012911D01*
X018799Y012873D01*
X018763Y012838D01*
X018724Y012806D01*
X018683Y012777D01*
X018640Y012751D01*
X018595Y012729D01*
X018549Y012711D01*
X018501Y012696D01*
X018452Y012685D01*
X018403Y012678D01*
X018353Y012675D01*
X018302Y012676D01*
X018253Y012681D01*
X018203Y012690D01*
X018155Y012703D01*
X018108Y012719D01*
X018062Y012740D01*
X018018Y012764D01*
X017976Y012791D01*
X017936Y012821D01*
X017899Y012855D01*
X017865Y012892D01*
X017833Y012931D01*
X017805Y012972D01*
X017780Y013016D01*
X017759Y013061D01*
X017742Y013108D01*
X017728Y013156D01*
X017718Y013205D01*
X017712Y013255D01*
X017710Y013305D01*
D11*
X015430Y009805D03*
X015430Y005555D03*
X005055Y005555D03*
X005055Y009805D03*
M02*
