G75*
%MOIN*%
%OFA0B0*%
%FSLAX24Y24*%
%IPPOS*%
%LPD*%
%AMOC8*
5,1,8,0,0,1.08239X$1,22.5*
%
%ADD10C,0.0000*%
%ADD11R,0.0820X0.1500*%
%ADD12R,0.3500X0.2500*%
%ADD13C,0.0780*%
%ADD14OC8,0.0520*%
%ADD15R,0.0531X0.0157*%
%ADD16R,0.0710X0.0630*%
%ADD17R,0.1000X0.0500*%
%ADD18OC8,0.0600*%
%ADD19R,0.0500X0.1000*%
%ADD20C,0.0500*%
%ADD21C,0.0400*%
%ADD22C,0.0120*%
%ADD23C,0.0160*%
%ADD24C,0.0240*%
%ADD25C,0.0100*%
%ADD26C,0.0560*%
%ADD27C,0.0700*%
D10*
X000180Y000180D02*
X000180Y014865D01*
X019865Y014865D01*
X019865Y000180D01*
X000180Y000180D01*
X001050Y013305D02*
X001052Y013355D01*
X001058Y013405D01*
X001068Y013454D01*
X001082Y013502D01*
X001099Y013549D01*
X001120Y013594D01*
X001145Y013638D01*
X001173Y013679D01*
X001205Y013718D01*
X001239Y013755D01*
X001276Y013789D01*
X001316Y013819D01*
X001358Y013846D01*
X001402Y013870D01*
X001448Y013891D01*
X001495Y013907D01*
X001543Y013920D01*
X001593Y013929D01*
X001642Y013934D01*
X001693Y013935D01*
X001743Y013932D01*
X001792Y013925D01*
X001841Y013914D01*
X001889Y013899D01*
X001935Y013881D01*
X001980Y013859D01*
X002023Y013833D01*
X002064Y013804D01*
X002103Y013772D01*
X002139Y013737D01*
X002171Y013699D01*
X002201Y013659D01*
X002228Y013616D01*
X002251Y013572D01*
X002270Y013526D01*
X002286Y013478D01*
X002298Y013429D01*
X002306Y013380D01*
X002310Y013330D01*
X002310Y013280D01*
X002306Y013230D01*
X002298Y013181D01*
X002286Y013132D01*
X002270Y013084D01*
X002251Y013038D01*
X002228Y012994D01*
X002201Y012951D01*
X002171Y012911D01*
X002139Y012873D01*
X002103Y012838D01*
X002064Y012806D01*
X002023Y012777D01*
X001980Y012751D01*
X001935Y012729D01*
X001889Y012711D01*
X001841Y012696D01*
X001792Y012685D01*
X001743Y012678D01*
X001693Y012675D01*
X001642Y012676D01*
X001593Y012681D01*
X001543Y012690D01*
X001495Y012703D01*
X001448Y012719D01*
X001402Y012740D01*
X001358Y012764D01*
X001316Y012791D01*
X001276Y012821D01*
X001239Y012855D01*
X001205Y012892D01*
X001173Y012931D01*
X001145Y012972D01*
X001120Y013016D01*
X001099Y013061D01*
X001082Y013108D01*
X001068Y013156D01*
X001058Y013205D01*
X001052Y013255D01*
X001050Y013305D01*
X017710Y013305D02*
X017712Y013355D01*
X017718Y013405D01*
X017728Y013454D01*
X017742Y013502D01*
X017759Y013549D01*
X017780Y013594D01*
X017805Y013638D01*
X017833Y013679D01*
X017865Y013718D01*
X017899Y013755D01*
X017936Y013789D01*
X017976Y013819D01*
X018018Y013846D01*
X018062Y013870D01*
X018108Y013891D01*
X018155Y013907D01*
X018203Y013920D01*
X018253Y013929D01*
X018302Y013934D01*
X018353Y013935D01*
X018403Y013932D01*
X018452Y013925D01*
X018501Y013914D01*
X018549Y013899D01*
X018595Y013881D01*
X018640Y013859D01*
X018683Y013833D01*
X018724Y013804D01*
X018763Y013772D01*
X018799Y013737D01*
X018831Y013699D01*
X018861Y013659D01*
X018888Y013616D01*
X018911Y013572D01*
X018930Y013526D01*
X018946Y013478D01*
X018958Y013429D01*
X018966Y013380D01*
X018970Y013330D01*
X018970Y013280D01*
X018966Y013230D01*
X018958Y013181D01*
X018946Y013132D01*
X018930Y013084D01*
X018911Y013038D01*
X018888Y012994D01*
X018861Y012951D01*
X018831Y012911D01*
X018799Y012873D01*
X018763Y012838D01*
X018724Y012806D01*
X018683Y012777D01*
X018640Y012751D01*
X018595Y012729D01*
X018549Y012711D01*
X018501Y012696D01*
X018452Y012685D01*
X018403Y012678D01*
X018353Y012675D01*
X018302Y012676D01*
X018253Y012681D01*
X018203Y012690D01*
X018155Y012703D01*
X018108Y012719D01*
X018062Y012740D01*
X018018Y012764D01*
X017976Y012791D01*
X017936Y012821D01*
X017899Y012855D01*
X017865Y012892D01*
X017833Y012931D01*
X017805Y012972D01*
X017780Y013016D01*
X017759Y013061D01*
X017742Y013108D01*
X017728Y013156D01*
X017718Y013205D01*
X017712Y013255D01*
X017710Y013305D01*
D11*
X015430Y005305D03*
X013430Y005305D03*
X011130Y005305D03*
X009130Y005305D03*
X006805Y005305D03*
X004805Y005305D03*
D12*
X005805Y009305D03*
X010130Y009305D03*
X014430Y009305D03*
D13*
X017690Y008465D02*
X018470Y008465D01*
X018470Y010445D02*
X017690Y010445D01*
X015170Y012890D02*
X015170Y013670D01*
X013190Y013670D02*
X013190Y012890D01*
X010870Y012890D02*
X010870Y013670D01*
X008890Y013670D02*
X008890Y012890D01*
X006520Y012890D02*
X006520Y013670D01*
X004540Y013670D02*
X004540Y012890D01*
D14*
X018355Y005330D03*
X018355Y004330D03*
D15*
X010012Y003257D03*
X010012Y003001D03*
X010012Y002745D03*
X010012Y002489D03*
X010012Y002233D03*
X010012Y001977D03*
X010012Y001721D03*
X010012Y001465D03*
X010012Y001209D03*
X010012Y000953D03*
X007748Y000953D03*
X007748Y001209D03*
X007748Y001465D03*
X007748Y001721D03*
X007748Y001977D03*
X007748Y002233D03*
X007748Y002489D03*
X007748Y002745D03*
X007748Y003001D03*
X007748Y003257D03*
D16*
X013930Y003115D03*
X015055Y003115D03*
X015055Y001995D03*
X013930Y001995D03*
D17*
X017680Y002055D03*
X017680Y002805D03*
D18*
X002555Y006430D03*
X001555Y006430D03*
X001555Y007430D03*
X002555Y007430D03*
X002555Y008430D03*
X001555Y008430D03*
X001555Y009430D03*
X002555Y009430D03*
X002555Y010430D03*
X001555Y010430D03*
D19*
X002305Y001430D03*
X003180Y001430D03*
X004055Y001430D03*
X004930Y001430D03*
D20*
X006805Y005305D02*
X006805Y006805D01*
X007180Y007180D01*
X011055Y007180D01*
X011130Y007105D01*
X011130Y005305D01*
X011055Y007180D02*
X015555Y007180D01*
X015430Y007055D01*
X015430Y005305D01*
X016305Y005305D01*
X017280Y004330D01*
X017680Y004330D01*
X018355Y004330D01*
X018355Y005330D02*
X018830Y005330D01*
X019430Y005930D01*
X019430Y009930D01*
X018915Y010445D01*
X018080Y010445D01*
X018080Y008465D02*
X016795Y007180D01*
X015555Y007180D01*
X010870Y009195D02*
X010849Y009173D01*
X010870Y009195D02*
X010870Y013280D01*
X006520Y013280D02*
X006520Y009035D01*
X006393Y008908D01*
D21*
X003555Y008055D02*
X003555Y006930D01*
X003555Y006805D02*
X003555Y003430D01*
X003055Y002930D01*
X002305Y002180D01*
X002305Y001430D01*
X003555Y006805D02*
X006805Y006805D01*
X003555Y008055D02*
X003180Y008430D01*
X002555Y008430D01*
D22*
X003555Y006930D02*
X003555Y006805D01*
X010012Y003257D02*
X010382Y003257D01*
X010012Y003001D02*
X011234Y003001D01*
X012120Y002745D02*
X010012Y002745D01*
X010012Y001977D02*
X012352Y001977D01*
X013656Y001721D02*
X013930Y001995D01*
X013656Y001721D02*
X010012Y001721D01*
X010012Y000953D02*
X014578Y000953D01*
X017620Y001995D02*
X017680Y002055D01*
X007748Y001977D02*
X006258Y001977D01*
X006627Y002233D02*
X007748Y002233D01*
X007748Y001209D02*
X006401Y001209D01*
X005907Y000953D02*
X007748Y000953D01*
X004540Y013030D02*
X004540Y013280D01*
D23*
X005170Y013249D02*
X005890Y013249D01*
X005890Y013091D02*
X005170Y013091D01*
X005170Y012932D02*
X005890Y012932D01*
X005890Y012774D02*
X005170Y012774D01*
X005170Y012765D02*
X005074Y012533D01*
X004897Y012356D01*
X004665Y012260D01*
X004415Y012260D01*
X004183Y012356D01*
X004006Y012533D01*
X003910Y012765D01*
X003910Y013795D01*
X004006Y014027D01*
X004183Y014204D01*
X004415Y014300D01*
X004665Y014300D01*
X004897Y014204D01*
X005074Y014027D01*
X005170Y013795D01*
X005170Y012765D01*
X005108Y012615D02*
X005952Y012615D01*
X005986Y012533D02*
X006030Y012489D01*
X006030Y010795D01*
X004007Y010795D01*
X003919Y010758D01*
X003852Y010691D01*
X003815Y010603D01*
X003815Y008007D01*
X003852Y007919D01*
X003919Y007852D01*
X004007Y007815D01*
X007603Y007815D01*
X007691Y007852D01*
X007758Y007919D01*
X007795Y008007D01*
X007795Y010603D01*
X007758Y010691D01*
X007691Y010758D01*
X007603Y010795D01*
X007010Y010795D01*
X007010Y012489D01*
X007054Y012533D01*
X007150Y012765D01*
X007150Y013795D01*
X007054Y014027D01*
X006877Y014204D01*
X006645Y014300D01*
X006395Y014300D01*
X006163Y014204D01*
X005986Y014027D01*
X005890Y013795D01*
X005890Y012765D01*
X005986Y012533D01*
X006030Y012457D02*
X004997Y012457D01*
X004757Y012298D02*
X006030Y012298D01*
X006030Y012140D02*
X000420Y012140D01*
X000420Y012298D02*
X004323Y012298D01*
X004083Y012457D02*
X001905Y012457D01*
X001853Y012435D02*
X002173Y012568D01*
X002417Y012812D01*
X002550Y013132D01*
X002550Y013478D01*
X002417Y013798D01*
X002173Y014042D01*
X001853Y014175D01*
X001507Y014175D01*
X001187Y014042D01*
X000943Y013798D01*
X000810Y013478D01*
X000810Y013132D01*
X000943Y012812D01*
X001187Y012568D01*
X001507Y012435D01*
X001853Y012435D01*
X001455Y012457D02*
X000420Y012457D01*
X000420Y012615D02*
X001140Y012615D01*
X000981Y012774D02*
X000420Y012774D01*
X000420Y012932D02*
X000893Y012932D01*
X000827Y013091D02*
X000420Y013091D01*
X000420Y013249D02*
X000810Y013249D01*
X000810Y013408D02*
X000420Y013408D01*
X000420Y013566D02*
X000847Y013566D01*
X000912Y013725D02*
X000420Y013725D01*
X000420Y013883D02*
X001028Y013883D01*
X001186Y014042D02*
X000420Y014042D01*
X000420Y014200D02*
X004179Y014200D01*
X004021Y014042D02*
X002174Y014042D01*
X002332Y013883D02*
X003946Y013883D01*
X003910Y013725D02*
X002448Y013725D01*
X002513Y013566D02*
X003910Y013566D01*
X003910Y013408D02*
X002550Y013408D01*
X002550Y013249D02*
X003910Y013249D01*
X003910Y013091D02*
X002533Y013091D01*
X002467Y012932D02*
X003910Y012932D01*
X003910Y012774D02*
X002379Y012774D01*
X002220Y012615D02*
X003972Y012615D01*
X005170Y013408D02*
X005890Y013408D01*
X005890Y013566D02*
X005170Y013566D01*
X005170Y013725D02*
X005890Y013725D01*
X005926Y013883D02*
X005134Y013883D01*
X005059Y014042D02*
X006001Y014042D01*
X006159Y014200D02*
X004901Y014200D01*
X006881Y014200D02*
X008529Y014200D01*
X008533Y014204D02*
X008356Y014027D01*
X008260Y013795D01*
X008260Y012765D01*
X008356Y012533D01*
X008533Y012356D01*
X008765Y012260D01*
X009015Y012260D01*
X009247Y012356D01*
X009424Y012533D01*
X009520Y012765D01*
X009520Y013795D01*
X009424Y014027D01*
X009247Y014204D01*
X009015Y014300D01*
X008765Y014300D01*
X008533Y014204D01*
X008371Y014042D02*
X007039Y014042D01*
X007114Y013883D02*
X008296Y013883D01*
X008260Y013725D02*
X007150Y013725D01*
X007150Y013566D02*
X008260Y013566D01*
X008260Y013408D02*
X007150Y013408D01*
X007150Y013249D02*
X008260Y013249D01*
X008260Y013091D02*
X007150Y013091D01*
X007150Y012932D02*
X008260Y012932D01*
X008260Y012774D02*
X007150Y012774D01*
X007088Y012615D02*
X008322Y012615D01*
X008433Y012457D02*
X007010Y012457D01*
X007010Y012298D02*
X008673Y012298D01*
X009107Y012298D02*
X010380Y012298D01*
X010380Y012140D02*
X007010Y012140D01*
X007010Y011981D02*
X010380Y011981D01*
X010380Y011823D02*
X007010Y011823D01*
X007010Y011664D02*
X010380Y011664D01*
X010380Y011506D02*
X007010Y011506D01*
X007010Y011347D02*
X010380Y011347D01*
X010380Y011189D02*
X007010Y011189D01*
X007010Y011030D02*
X010380Y011030D01*
X010380Y010872D02*
X007010Y010872D01*
X007736Y010713D02*
X008199Y010713D01*
X008177Y010691D02*
X008140Y010603D01*
X008140Y008007D01*
X008177Y007919D01*
X008244Y007852D01*
X008332Y007815D01*
X011928Y007815D01*
X012016Y007852D01*
X012083Y007919D01*
X012120Y008007D01*
X012120Y010603D01*
X012083Y010691D01*
X012016Y010758D01*
X011928Y010795D01*
X011360Y010795D01*
X011360Y012489D01*
X011404Y012533D01*
X011500Y012765D01*
X011500Y013795D01*
X011404Y014027D01*
X011227Y014204D01*
X010995Y014300D01*
X010745Y014300D01*
X010513Y014204D01*
X010336Y014027D01*
X010240Y013795D01*
X010240Y012765D01*
X010336Y012533D01*
X010380Y012489D01*
X010380Y010795D01*
X008332Y010795D01*
X008244Y010758D01*
X008177Y010691D01*
X008140Y010555D02*
X007795Y010555D01*
X007795Y010396D02*
X008140Y010396D01*
X008140Y010238D02*
X007795Y010238D01*
X007795Y010079D02*
X008140Y010079D01*
X008140Y009921D02*
X007795Y009921D01*
X007795Y009762D02*
X008140Y009762D01*
X008140Y009604D02*
X007795Y009604D01*
X007795Y009445D02*
X008140Y009445D01*
X008140Y009287D02*
X007795Y009287D01*
X007795Y009128D02*
X008140Y009128D01*
X008140Y008970D02*
X007795Y008970D01*
X007795Y008811D02*
X008140Y008811D01*
X008140Y008653D02*
X007795Y008653D01*
X007795Y008494D02*
X008140Y008494D01*
X008140Y008336D02*
X007795Y008336D01*
X007795Y008177D02*
X008140Y008177D01*
X008140Y008019D02*
X007795Y008019D01*
X007699Y007860D02*
X008236Y007860D01*
X008672Y006295D02*
X008584Y006258D01*
X008517Y006191D01*
X008480Y006103D01*
X008480Y004507D01*
X008517Y004419D01*
X008584Y004352D01*
X008672Y004315D01*
X008770Y004315D01*
X008770Y003654D01*
X008437Y003321D01*
X008254Y003321D01*
X008254Y003383D01*
X008217Y003471D01*
X008150Y003539D01*
X008062Y003575D01*
X007435Y003575D01*
X007346Y003539D01*
X007279Y003471D01*
X007242Y003383D01*
X007242Y003130D01*
X007243Y003129D01*
X007242Y003127D01*
X007242Y003065D01*
X006748Y003065D01*
X005406Y004407D01*
X005418Y004419D01*
X005455Y004507D01*
X005455Y006103D01*
X005418Y006191D01*
X005351Y006258D01*
X005263Y006295D01*
X004347Y006295D01*
X004259Y006258D01*
X004192Y006191D01*
X004155Y006103D01*
X004155Y004507D01*
X004192Y004419D01*
X004259Y004352D01*
X004347Y004315D01*
X004536Y004315D01*
X004601Y004250D01*
X004698Y004210D01*
X006434Y002473D01*
X006552Y002425D01*
X007242Y002425D01*
X007242Y002362D01*
X007278Y002277D01*
X006411Y002277D01*
X005951Y002736D01*
X005861Y002826D01*
X005744Y002875D01*
X003616Y002875D01*
X003499Y002826D01*
X003409Y002736D01*
X002999Y002326D01*
X002909Y002236D01*
X002881Y002170D01*
X002794Y002133D01*
X002727Y002066D01*
X002709Y002023D01*
X002699Y002041D01*
X002666Y002074D01*
X002624Y002098D01*
X002579Y002110D01*
X002350Y002110D01*
X002350Y001475D01*
X002260Y001475D01*
X002260Y002110D01*
X002031Y002110D01*
X001986Y002098D01*
X001944Y002074D01*
X001911Y002041D01*
X001887Y001999D01*
X001875Y001954D01*
X001875Y001475D01*
X002260Y001475D01*
X002260Y001385D01*
X001875Y001385D01*
X001875Y000915D01*
X001204Y000915D01*
X000915Y001204D01*
X000915Y009906D01*
X001079Y010070D01*
X001151Y010070D01*
X001291Y009930D01*
X001015Y009654D01*
X001015Y009206D01*
X001291Y008930D01*
X001015Y008654D01*
X001015Y008206D01*
X001291Y007930D01*
X001015Y007654D01*
X001015Y007206D01*
X001291Y006930D01*
X001015Y006654D01*
X001015Y006206D01*
X001331Y005890D01*
X001779Y005890D01*
X002055Y006166D01*
X002331Y005890D01*
X002779Y005890D01*
X003095Y006206D01*
X003095Y006654D01*
X002819Y006930D01*
X003095Y007206D01*
X003095Y007654D01*
X002779Y007970D01*
X002774Y007970D01*
X003035Y008231D01*
X003035Y008410D01*
X002575Y008410D01*
X002575Y008450D01*
X003035Y008450D01*
X003035Y008629D01*
X002774Y008890D01*
X002779Y008890D01*
X003095Y009206D01*
X003095Y009654D01*
X002819Y009930D01*
X003095Y010206D01*
X003095Y010654D01*
X002779Y010970D01*
X002331Y010970D01*
X002055Y010694D01*
X001779Y010970D01*
X001331Y010970D01*
X001151Y010790D01*
X000858Y010790D01*
X000726Y010735D01*
X000420Y010429D01*
X000420Y014625D01*
X019625Y014625D01*
X019625Y010428D01*
X019330Y010723D01*
X019193Y010860D01*
X019012Y010935D01*
X018871Y010935D01*
X018827Y010979D01*
X018595Y011075D01*
X017565Y011075D01*
X017333Y010979D01*
X017156Y010802D01*
X017060Y010570D01*
X017060Y010320D01*
X017156Y010088D01*
X017333Y009911D01*
X017565Y009815D01*
X018595Y009815D01*
X018777Y009890D01*
X018940Y009727D01*
X018940Y008788D01*
X018905Y008836D01*
X018841Y008900D01*
X018769Y008953D01*
X018689Y008993D01*
X018603Y009021D01*
X018515Y009035D01*
X018130Y009035D01*
X018130Y008515D01*
X018030Y008515D01*
X018030Y009035D01*
X017645Y009035D01*
X017557Y009021D01*
X017471Y008993D01*
X017391Y008953D01*
X017319Y008900D01*
X017255Y008836D01*
X017202Y008764D01*
X017162Y008684D01*
X017134Y008598D01*
X017121Y008515D01*
X018030Y008515D01*
X018030Y008415D01*
X018130Y008415D01*
X018130Y007895D01*
X018515Y007895D01*
X018603Y007909D01*
X018689Y007937D01*
X018769Y007977D01*
X018841Y008030D01*
X018905Y008094D01*
X018940Y008142D01*
X018940Y006133D01*
X018627Y005820D01*
X018572Y005820D01*
X018562Y005830D01*
X018148Y005830D01*
X017855Y005537D01*
X017855Y005123D01*
X018148Y004830D01*
X018562Y004830D01*
X018572Y004840D01*
X018927Y004840D01*
X019108Y004915D01*
X019625Y005432D01*
X019625Y000420D01*
X003304Y000420D01*
X003384Y000500D01*
X003485Y000601D01*
X003531Y000712D01*
X003566Y000727D01*
X003617Y000778D01*
X003669Y000727D01*
X003757Y000690D01*
X004353Y000690D01*
X004441Y000727D01*
X004492Y000778D01*
X004544Y000727D01*
X004632Y000690D01*
X005228Y000690D01*
X005316Y000727D01*
X005383Y000794D01*
X005420Y000882D01*
X005420Y000987D01*
X005725Y000682D01*
X005843Y000633D01*
X005970Y000633D01*
X006019Y000653D01*
X007389Y000653D01*
X007435Y000635D01*
X008062Y000635D01*
X008150Y000671D01*
X008217Y000739D01*
X008254Y000827D01*
X008254Y001080D01*
X008253Y001081D01*
X008254Y001083D01*
X008254Y001336D01*
X008253Y001337D01*
X008254Y001339D01*
X008254Y001592D01*
X008253Y001593D01*
X008254Y001595D01*
X008254Y001687D01*
X009506Y001687D01*
X009506Y001595D01*
X009507Y001593D01*
X009506Y001592D01*
X009506Y001339D01*
X009507Y001337D01*
X009506Y001336D01*
X009506Y001083D01*
X009507Y001081D01*
X009506Y001080D01*
X009506Y000827D01*
X009543Y000739D01*
X009610Y000671D01*
X009698Y000635D01*
X010325Y000635D01*
X010371Y000653D01*
X014369Y000653D01*
X014375Y000648D01*
X014507Y000593D01*
X014650Y000593D01*
X014782Y000648D01*
X015259Y001125D01*
X015360Y001226D01*
X015415Y001358D01*
X015415Y001440D01*
X015458Y001440D01*
X015546Y001477D01*
X015613Y001544D01*
X015650Y001632D01*
X015650Y001635D01*
X017010Y001635D01*
X017044Y001602D01*
X017132Y001565D01*
X018228Y001565D01*
X018316Y001602D01*
X018383Y001669D01*
X018420Y001757D01*
X018420Y002353D01*
X018383Y002441D01*
X018344Y002480D01*
X018348Y002486D01*
X018360Y002531D01*
X018360Y002760D01*
X017725Y002760D01*
X017725Y002850D01*
X017635Y002850D01*
X017635Y003235D01*
X017156Y003235D01*
X017111Y003223D01*
X017069Y003199D01*
X017036Y003166D01*
X017012Y003124D01*
X017000Y003079D01*
X017000Y002850D01*
X017635Y002850D01*
X017635Y002760D01*
X017000Y002760D01*
X017000Y002531D01*
X017012Y002486D01*
X017016Y002480D01*
X016977Y002441D01*
X016941Y002355D01*
X015650Y002355D01*
X015650Y002358D01*
X015613Y002446D01*
X015546Y002514D01*
X015458Y002550D01*
X014652Y002550D01*
X014564Y002514D01*
X014497Y002446D01*
X014492Y002436D01*
X014488Y002446D01*
X014421Y002514D01*
X014333Y002550D01*
X013527Y002550D01*
X013439Y002514D01*
X013372Y002446D01*
X013335Y002358D01*
X013335Y002021D01*
X012905Y002021D01*
X013468Y002584D01*
X013527Y002560D01*
X014333Y002560D01*
X014421Y002596D01*
X014488Y002664D01*
X014492Y002674D01*
X014497Y002664D01*
X014564Y002596D01*
X014652Y002560D01*
X015458Y002560D01*
X015546Y002596D01*
X015613Y002664D01*
X015650Y002752D01*
X015650Y003478D01*
X015613Y003566D01*
X015546Y003633D01*
X015458Y003670D01*
X014652Y003670D01*
X014564Y003633D01*
X014497Y003566D01*
X014492Y003556D01*
X014488Y003566D01*
X014421Y003633D01*
X014333Y003670D01*
X013527Y003670D01*
X013439Y003633D01*
X013383Y003577D01*
X013322Y003724D01*
X013384Y003750D01*
X013634Y004000D01*
X013735Y004101D01*
X013790Y004233D01*
X013790Y004315D01*
X013888Y004315D01*
X013976Y004352D01*
X014043Y004419D01*
X014080Y004507D01*
X014080Y006103D01*
X014043Y006191D01*
X013976Y006258D01*
X013888Y006295D01*
X012972Y006295D01*
X012884Y006258D01*
X012817Y006191D01*
X012780Y006103D01*
X012780Y004507D01*
X012817Y004419D01*
X012821Y004415D01*
X011655Y004415D01*
X011684Y004444D01*
X011708Y004486D01*
X011720Y004531D01*
X011720Y005225D01*
X011210Y005225D01*
X011210Y005385D01*
X011050Y005385D01*
X011050Y006235D01*
X010696Y006235D01*
X010651Y006223D01*
X010609Y006199D01*
X010576Y006166D01*
X010552Y006124D01*
X010540Y006079D01*
X010540Y005385D01*
X011050Y005385D01*
X011050Y005225D01*
X010540Y005225D01*
X010540Y004531D01*
X010552Y004486D01*
X010576Y004444D01*
X010609Y004411D01*
X010651Y004387D01*
X010696Y004375D01*
X011012Y004375D01*
X010976Y004360D01*
X010875Y004259D01*
X010191Y003575D01*
X009698Y003575D01*
X009610Y003539D01*
X009543Y003471D01*
X009506Y003383D01*
X009506Y003130D01*
X009507Y003129D01*
X009506Y003127D01*
X009506Y002874D01*
X009507Y002873D01*
X009506Y002871D01*
X009506Y002618D01*
X009507Y002617D01*
X009506Y002615D01*
X009506Y002362D01*
X009507Y002361D01*
X009506Y002359D01*
X009506Y002267D01*
X008210Y002267D01*
X008217Y002274D01*
X008254Y002362D01*
X008254Y002615D01*
X008253Y002617D01*
X008254Y002618D01*
X008254Y002681D01*
X008457Y002681D01*
X008554Y002641D01*
X008697Y002641D01*
X008830Y002695D01*
X009334Y003200D01*
X009435Y003301D01*
X009490Y003433D01*
X009490Y004315D01*
X009588Y004315D01*
X009676Y004352D01*
X009743Y004419D01*
X009780Y004507D01*
X009780Y006103D01*
X009743Y006191D01*
X009676Y006258D01*
X009588Y006295D01*
X008672Y006295D01*
X008624Y006275D02*
X005311Y006275D01*
X005449Y006117D02*
X006225Y006117D01*
X006227Y006124D02*
X006215Y006079D01*
X006215Y005385D01*
X006725Y005385D01*
X006725Y006235D01*
X006371Y006235D01*
X006326Y006223D01*
X006284Y006199D01*
X006251Y006166D01*
X006227Y006124D01*
X006215Y005958D02*
X005455Y005958D01*
X005455Y005800D02*
X006215Y005800D01*
X006215Y005641D02*
X005455Y005641D01*
X005455Y005483D02*
X006215Y005483D01*
X006215Y005225D02*
X006215Y004531D01*
X006227Y004486D01*
X006251Y004444D01*
X006284Y004411D01*
X006326Y004387D01*
X006371Y004375D01*
X006725Y004375D01*
X006725Y005225D01*
X006885Y005225D01*
X006885Y005385D01*
X007395Y005385D01*
X007395Y006079D01*
X007383Y006124D01*
X007359Y006166D01*
X007326Y006199D01*
X007284Y006223D01*
X007239Y006235D01*
X006885Y006235D01*
X006885Y005385D01*
X006725Y005385D01*
X006725Y005225D01*
X006215Y005225D01*
X006215Y005166D02*
X005455Y005166D01*
X005455Y005324D02*
X006725Y005324D01*
X006725Y005166D02*
X006885Y005166D01*
X006885Y005225D02*
X006885Y004375D01*
X007239Y004375D01*
X007284Y004387D01*
X007326Y004411D01*
X007359Y004444D01*
X007383Y004486D01*
X007395Y004531D01*
X007395Y005225D01*
X006885Y005225D01*
X006885Y005324D02*
X008480Y005324D01*
X008480Y005166D02*
X007395Y005166D01*
X007395Y005007D02*
X008480Y005007D01*
X008480Y004849D02*
X007395Y004849D01*
X007395Y004690D02*
X008480Y004690D01*
X008480Y004532D02*
X007395Y004532D01*
X006885Y004532D02*
X006725Y004532D01*
X006725Y004690D02*
X006885Y004690D01*
X006885Y004849D02*
X006725Y004849D01*
X006725Y005007D02*
X006885Y005007D01*
X006885Y005483D02*
X006725Y005483D01*
X006725Y005641D02*
X006885Y005641D01*
X006885Y005800D02*
X006725Y005800D01*
X006725Y005958D02*
X006885Y005958D01*
X006885Y006117D02*
X006725Y006117D01*
X007385Y006117D02*
X008486Y006117D01*
X008480Y005958D02*
X007395Y005958D01*
X007395Y005800D02*
X008480Y005800D01*
X008480Y005641D02*
X007395Y005641D01*
X007395Y005483D02*
X008480Y005483D01*
X009780Y005483D02*
X010540Y005483D01*
X010540Y005641D02*
X009780Y005641D01*
X009780Y005800D02*
X010540Y005800D01*
X010540Y005958D02*
X009780Y005958D01*
X009774Y006117D02*
X010550Y006117D01*
X011050Y006117D02*
X011210Y006117D01*
X011210Y006235D02*
X011210Y005385D01*
X011720Y005385D01*
X011720Y006079D01*
X011708Y006124D01*
X011684Y006166D01*
X011651Y006199D01*
X011609Y006223D01*
X011564Y006235D01*
X011210Y006235D01*
X011210Y005958D02*
X011050Y005958D01*
X011050Y005800D02*
X011210Y005800D01*
X011210Y005641D02*
X011050Y005641D01*
X011050Y005483D02*
X011210Y005483D01*
X011210Y005324D02*
X012780Y005324D01*
X012780Y005166D02*
X011720Y005166D01*
X011720Y005007D02*
X012780Y005007D01*
X012780Y004849D02*
X011720Y004849D01*
X011720Y004690D02*
X012780Y004690D01*
X012780Y004532D02*
X011720Y004532D01*
X011007Y004373D02*
X009697Y004373D01*
X009780Y004532D02*
X010540Y004532D01*
X010540Y004690D02*
X009780Y004690D01*
X009780Y004849D02*
X010540Y004849D01*
X010540Y005007D02*
X009780Y005007D01*
X009780Y005166D02*
X010540Y005166D01*
X011050Y005324D02*
X009780Y005324D01*
X009636Y006275D02*
X012924Y006275D01*
X012786Y006117D02*
X011710Y006117D01*
X011720Y005958D02*
X012780Y005958D01*
X012780Y005800D02*
X011720Y005800D01*
X011720Y005641D02*
X012780Y005641D01*
X012780Y005483D02*
X011720Y005483D01*
X010830Y004215D02*
X009490Y004215D01*
X009490Y004056D02*
X010672Y004056D01*
X010513Y003898D02*
X009490Y003898D01*
X009490Y003739D02*
X010355Y003739D01*
X010196Y003581D02*
X009490Y003581D01*
X009485Y003422D02*
X009522Y003422D01*
X009506Y003264D02*
X009398Y003264D01*
X009506Y003105D02*
X009239Y003105D01*
X009081Y002947D02*
X009506Y002947D01*
X009506Y002788D02*
X008922Y002788D01*
X008626Y003001D02*
X007748Y003001D01*
X007748Y002745D02*
X006615Y002745D01*
X004805Y004555D01*
X004686Y004215D02*
X000915Y004215D01*
X000915Y004373D02*
X004238Y004373D01*
X004155Y004532D02*
X000915Y004532D01*
X000915Y004690D02*
X004155Y004690D01*
X004155Y004849D02*
X000915Y004849D01*
X000915Y005007D02*
X004155Y005007D01*
X004155Y005166D02*
X000915Y005166D01*
X000915Y005324D02*
X004155Y005324D01*
X004155Y005483D02*
X000915Y005483D01*
X000915Y005641D02*
X004155Y005641D01*
X004155Y005800D02*
X000915Y005800D01*
X000915Y005958D02*
X001263Y005958D01*
X001105Y006117D02*
X000915Y006117D01*
X000915Y006275D02*
X001015Y006275D01*
X001015Y006434D02*
X000915Y006434D01*
X000915Y006592D02*
X001015Y006592D01*
X001112Y006751D02*
X000915Y006751D01*
X000915Y006909D02*
X001270Y006909D01*
X001154Y007068D02*
X000915Y007068D01*
X000915Y007226D02*
X001015Y007226D01*
X001015Y007385D02*
X000915Y007385D01*
X000915Y007543D02*
X001015Y007543D01*
X001063Y007702D02*
X000915Y007702D01*
X000915Y007860D02*
X001221Y007860D01*
X001203Y008019D02*
X000915Y008019D01*
X000915Y008177D02*
X001044Y008177D01*
X001015Y008336D02*
X000915Y008336D01*
X000915Y008494D02*
X001015Y008494D01*
X001015Y008653D02*
X000915Y008653D01*
X000915Y008811D02*
X001172Y008811D01*
X001252Y008970D02*
X000915Y008970D01*
X000915Y009128D02*
X001093Y009128D01*
X001015Y009287D02*
X000915Y009287D01*
X000915Y009445D02*
X001015Y009445D01*
X001015Y009604D02*
X000915Y009604D01*
X000915Y009762D02*
X001123Y009762D01*
X001282Y009921D02*
X000930Y009921D01*
X000545Y010555D02*
X000420Y010555D01*
X000420Y010713D02*
X000704Y010713D01*
X000420Y010872D02*
X001233Y010872D01*
X001877Y010872D02*
X002233Y010872D01*
X002074Y010713D02*
X002036Y010713D01*
X002877Y010872D02*
X006030Y010872D01*
X006030Y011030D02*
X000420Y011030D01*
X000420Y011189D02*
X006030Y011189D01*
X006030Y011347D02*
X000420Y011347D01*
X000420Y011506D02*
X006030Y011506D01*
X006030Y011664D02*
X000420Y011664D01*
X000420Y011823D02*
X006030Y011823D01*
X006030Y011981D02*
X000420Y011981D01*
X003036Y010713D02*
X003874Y010713D01*
X003815Y010555D02*
X003095Y010555D01*
X003095Y010396D02*
X003815Y010396D01*
X003815Y010238D02*
X003095Y010238D01*
X002968Y010079D02*
X003815Y010079D01*
X003815Y009921D02*
X002828Y009921D01*
X002987Y009762D02*
X003815Y009762D01*
X003815Y009604D02*
X003095Y009604D01*
X003095Y009445D02*
X003815Y009445D01*
X003815Y009287D02*
X003095Y009287D01*
X003017Y009128D02*
X003815Y009128D01*
X003815Y008970D02*
X002858Y008970D01*
X002853Y008811D02*
X003815Y008811D01*
X003815Y008653D02*
X003011Y008653D01*
X003035Y008494D02*
X003815Y008494D01*
X003815Y008336D02*
X003035Y008336D01*
X002981Y008177D02*
X003815Y008177D01*
X003815Y008019D02*
X002822Y008019D01*
X002889Y007860D02*
X003911Y007860D01*
X003095Y007543D02*
X018940Y007543D01*
X018940Y007385D02*
X003095Y007385D01*
X003095Y007226D02*
X018940Y007226D01*
X018940Y007068D02*
X002956Y007068D01*
X002840Y006909D02*
X018940Y006909D01*
X018940Y006751D02*
X002998Y006751D01*
X003095Y006592D02*
X018940Y006592D01*
X018940Y006434D02*
X003095Y006434D01*
X003095Y006275D02*
X004299Y006275D01*
X004161Y006117D02*
X003005Y006117D01*
X002847Y005958D02*
X004155Y005958D01*
X005455Y005007D02*
X006215Y005007D01*
X006215Y004849D02*
X005455Y004849D01*
X005455Y004690D02*
X006215Y004690D01*
X006215Y004532D02*
X005455Y004532D01*
X005440Y004373D02*
X008563Y004373D01*
X008770Y004215D02*
X005598Y004215D01*
X005757Y004056D02*
X008770Y004056D01*
X008770Y003898D02*
X005915Y003898D01*
X006074Y003739D02*
X008770Y003739D01*
X008696Y003581D02*
X006232Y003581D01*
X006391Y003422D02*
X007259Y003422D01*
X007242Y003264D02*
X006549Y003264D01*
X006708Y003105D02*
X007242Y003105D01*
X006440Y002471D02*
X006217Y002471D01*
X006278Y002630D02*
X006058Y002630D01*
X006119Y002788D02*
X005900Y002788D01*
X005930Y002930D02*
X003055Y002930D01*
X003302Y002630D02*
X000915Y002630D01*
X000915Y002788D02*
X003460Y002788D01*
X003409Y002736D02*
X003409Y002736D01*
X003680Y002555D02*
X003180Y002055D01*
X003180Y001430D01*
X002350Y001520D02*
X002260Y001520D01*
X002260Y001679D02*
X002350Y001679D01*
X002350Y001837D02*
X002260Y001837D01*
X002260Y001996D02*
X002350Y001996D01*
X001886Y001996D02*
X000915Y001996D01*
X000915Y002154D02*
X002844Y002154D01*
X002985Y002313D02*
X000915Y002313D01*
X000915Y002471D02*
X003143Y002471D01*
X002999Y002326D02*
X002999Y002326D01*
X003680Y002555D02*
X005680Y002555D01*
X006258Y001977D01*
X006375Y002313D02*
X007263Y002313D01*
X006627Y002233D02*
X005930Y002930D01*
X005961Y002947D02*
X000915Y002947D01*
X000915Y003105D02*
X005802Y003105D01*
X005644Y003264D02*
X000915Y003264D01*
X000915Y003422D02*
X005485Y003422D01*
X005327Y003581D02*
X000915Y003581D01*
X000915Y003739D02*
X005168Y003739D01*
X005010Y003898D02*
X000915Y003898D01*
X000915Y004056D02*
X004851Y004056D01*
X005430Y002180D02*
X004180Y002180D01*
X004055Y002055D01*
X004055Y001430D01*
X004930Y001430D02*
X005430Y001430D01*
X005907Y000953D01*
X005680Y000728D02*
X005317Y000728D01*
X005420Y000886D02*
X005521Y000886D01*
X006401Y001209D02*
X005430Y002180D01*
X004543Y000728D02*
X004442Y000728D01*
X003668Y000728D02*
X003567Y000728D01*
X003453Y000569D02*
X019625Y000569D01*
X019625Y000728D02*
X014862Y000728D01*
X015020Y000886D02*
X019625Y000886D01*
X019625Y001045D02*
X015179Y001045D01*
X015337Y001203D02*
X019625Y001203D01*
X019625Y001362D02*
X015415Y001362D01*
X015589Y001520D02*
X019625Y001520D01*
X019625Y001679D02*
X018387Y001679D01*
X018420Y001837D02*
X019625Y001837D01*
X019625Y001996D02*
X018420Y001996D01*
X018420Y002154D02*
X019625Y002154D01*
X019625Y002313D02*
X018420Y002313D01*
X018353Y002471D02*
X019625Y002471D01*
X019625Y002630D02*
X018360Y002630D01*
X018360Y002850D02*
X018360Y003079D01*
X018348Y003124D01*
X018324Y003166D01*
X018291Y003199D01*
X018249Y003223D01*
X018204Y003235D01*
X017725Y003235D01*
X017725Y002850D01*
X018360Y002850D01*
X018360Y002947D02*
X019625Y002947D01*
X019625Y003105D02*
X018353Y003105D01*
X017725Y003105D02*
X017635Y003105D01*
X017635Y002947D02*
X017725Y002947D01*
X017725Y002788D02*
X019625Y002788D01*
X019625Y003264D02*
X015650Y003264D01*
X015650Y003422D02*
X019625Y003422D01*
X019625Y003581D02*
X015599Y003581D01*
X015650Y003105D02*
X017007Y003105D01*
X017000Y002947D02*
X015650Y002947D01*
X015650Y002788D02*
X017635Y002788D01*
X017000Y002630D02*
X015579Y002630D01*
X015588Y002471D02*
X017007Y002471D01*
X018173Y003890D02*
X017915Y004148D01*
X017915Y004330D01*
X018355Y004330D01*
X018355Y004330D01*
X018355Y004770D01*
X018537Y004770D01*
X018795Y004512D01*
X018795Y004330D01*
X018355Y004330D01*
X018355Y004330D01*
X018355Y004330D01*
X018355Y004770D01*
X018173Y004770D01*
X017915Y004512D01*
X017915Y004330D01*
X018355Y004330D01*
X018795Y004330D01*
X018795Y004148D01*
X018537Y003890D01*
X018355Y003890D01*
X018355Y004330D01*
X018355Y004330D01*
X018355Y003890D01*
X018173Y003890D01*
X018165Y003898D02*
X013532Y003898D01*
X013690Y004056D02*
X018007Y004056D01*
X017915Y004215D02*
X013782Y004215D01*
X013997Y004373D02*
X017915Y004373D01*
X017934Y004532D02*
X016020Y004532D01*
X016020Y004531D02*
X016020Y005225D01*
X015510Y005225D01*
X015510Y005385D01*
X016020Y005385D01*
X016020Y006079D01*
X016008Y006124D01*
X015984Y006166D01*
X015951Y006199D01*
X015909Y006223D01*
X015864Y006235D01*
X015510Y006235D01*
X015510Y005385D01*
X015350Y005385D01*
X015350Y006235D01*
X014996Y006235D01*
X014951Y006223D01*
X014909Y006199D01*
X014876Y006166D01*
X014852Y006124D01*
X014840Y006079D01*
X014840Y005385D01*
X015350Y005385D01*
X015350Y005225D01*
X015510Y005225D01*
X015510Y004375D01*
X015864Y004375D01*
X015909Y004387D01*
X015951Y004411D01*
X015984Y004444D01*
X016008Y004486D01*
X016020Y004531D01*
X016020Y004690D02*
X018093Y004690D01*
X018129Y004849D02*
X016020Y004849D01*
X016020Y005007D02*
X017971Y005007D01*
X017855Y005166D02*
X016020Y005166D01*
X016020Y005483D02*
X017855Y005483D01*
X017855Y005324D02*
X015510Y005324D01*
X015510Y005166D02*
X015350Y005166D01*
X015350Y005225D02*
X015350Y004375D01*
X014996Y004375D01*
X014951Y004387D01*
X014909Y004411D01*
X014876Y004444D01*
X014852Y004486D01*
X014840Y004531D01*
X014840Y005225D01*
X015350Y005225D01*
X015350Y005324D02*
X014080Y005324D01*
X014080Y005166D02*
X014840Y005166D01*
X014840Y005007D02*
X014080Y005007D01*
X014080Y004849D02*
X014840Y004849D01*
X014840Y004690D02*
X014080Y004690D01*
X014080Y004532D02*
X014840Y004532D01*
X015350Y004532D02*
X015510Y004532D01*
X015510Y004690D02*
X015350Y004690D01*
X015350Y004849D02*
X015510Y004849D01*
X015510Y005007D02*
X015350Y005007D01*
X015350Y005483D02*
X015510Y005483D01*
X015510Y005641D02*
X015350Y005641D01*
X015350Y005800D02*
X015510Y005800D01*
X015510Y005958D02*
X015350Y005958D01*
X015350Y006117D02*
X015510Y006117D01*
X016010Y006117D02*
X018924Y006117D01*
X018940Y006275D02*
X013936Y006275D01*
X014074Y006117D02*
X014850Y006117D01*
X014840Y005958D02*
X014080Y005958D01*
X014080Y005800D02*
X014840Y005800D01*
X014840Y005641D02*
X014080Y005641D01*
X014080Y005483D02*
X014840Y005483D01*
X016020Y005641D02*
X017959Y005641D01*
X018117Y005800D02*
X016020Y005800D01*
X016020Y005958D02*
X018765Y005958D01*
X019517Y005324D02*
X019625Y005324D01*
X019625Y005166D02*
X019358Y005166D01*
X019200Y005007D02*
X019625Y005007D01*
X019625Y004849D02*
X018948Y004849D01*
X018617Y004690D02*
X019625Y004690D01*
X019625Y004532D02*
X018776Y004532D01*
X018795Y004373D02*
X019625Y004373D01*
X019625Y004215D02*
X018795Y004215D01*
X018703Y004056D02*
X019625Y004056D01*
X019625Y003898D02*
X018545Y003898D01*
X018355Y003898D02*
X018355Y003898D01*
X018355Y004056D02*
X018355Y004056D01*
X018355Y004215D02*
X018355Y004215D01*
X018355Y004373D02*
X018355Y004373D01*
X018355Y004532D02*
X018355Y004532D01*
X018355Y004690D02*
X018355Y004690D01*
X019625Y003739D02*
X013358Y003739D01*
X013381Y003581D02*
X013386Y003581D01*
X014474Y003581D02*
X014511Y003581D01*
X014531Y002630D02*
X014454Y002630D01*
X014463Y002471D02*
X014522Y002471D01*
X013397Y002471D02*
X013355Y002471D01*
X013335Y002313D02*
X013197Y002313D01*
X013335Y002154D02*
X013038Y002154D01*
X009506Y002313D02*
X008233Y002313D01*
X008254Y002471D02*
X009506Y002471D01*
X009506Y002630D02*
X008254Y002630D01*
X008238Y003422D02*
X008538Y003422D01*
X008254Y001679D02*
X009506Y001679D01*
X009506Y001520D02*
X008254Y001520D01*
X008254Y001362D02*
X009506Y001362D01*
X009506Y001203D02*
X008254Y001203D01*
X008254Y001045D02*
X009506Y001045D01*
X009506Y000886D02*
X008254Y000886D01*
X008206Y000728D02*
X009554Y000728D01*
X002263Y005958D02*
X001847Y005958D01*
X002005Y006117D02*
X002105Y006117D01*
X003047Y007702D02*
X018940Y007702D01*
X018940Y007860D02*
X016324Y007860D01*
X016316Y007852D02*
X016383Y007919D01*
X016420Y008007D01*
X016420Y010603D01*
X016383Y010691D01*
X016316Y010758D01*
X016228Y010795D01*
X015691Y010795D01*
X015690Y010921D01*
X015690Y012519D01*
X015704Y012533D01*
X015800Y012765D01*
X015800Y013795D01*
X015704Y014027D01*
X015527Y014204D01*
X015295Y014300D01*
X015045Y014300D01*
X014813Y014204D01*
X014636Y014027D01*
X014540Y013795D01*
X014540Y012765D01*
X014636Y012533D01*
X014650Y012519D01*
X014650Y011022D01*
X014650Y011021D01*
X014650Y010919D01*
X014650Y010817D01*
X014650Y010815D01*
X014651Y010795D01*
X012632Y010795D01*
X012544Y010758D01*
X012477Y010691D01*
X012440Y010603D01*
X012440Y008007D01*
X012477Y007919D01*
X012544Y007852D01*
X012632Y007815D01*
X016228Y007815D01*
X016316Y007852D01*
X016420Y008019D02*
X017335Y008019D01*
X017319Y008030D02*
X017391Y007977D01*
X017471Y007937D01*
X017557Y007909D01*
X017645Y007895D01*
X018030Y007895D01*
X018030Y008415D01*
X017121Y008415D01*
X017134Y008332D01*
X017162Y008246D01*
X017202Y008166D01*
X017255Y008094D01*
X017319Y008030D01*
X017197Y008177D02*
X016420Y008177D01*
X016420Y008336D02*
X017133Y008336D01*
X017152Y008653D02*
X016420Y008653D01*
X016420Y008811D02*
X017237Y008811D01*
X017425Y008970D02*
X016420Y008970D01*
X016420Y009128D02*
X018940Y009128D01*
X018940Y008970D02*
X018735Y008970D01*
X018923Y008811D02*
X018940Y008811D01*
X018940Y009287D02*
X016420Y009287D01*
X016420Y009445D02*
X018940Y009445D01*
X018940Y009604D02*
X016420Y009604D01*
X016420Y009762D02*
X018905Y009762D01*
X019498Y010555D02*
X019625Y010555D01*
X019625Y010713D02*
X019340Y010713D01*
X019166Y010872D02*
X019625Y010872D01*
X019625Y011030D02*
X018704Y011030D01*
X019625Y011189D02*
X015690Y011189D01*
X015690Y011347D02*
X019625Y011347D01*
X019625Y011506D02*
X015690Y011506D01*
X015690Y011664D02*
X019625Y011664D01*
X019625Y011823D02*
X015690Y011823D01*
X015690Y011981D02*
X019625Y011981D01*
X019625Y012140D02*
X015690Y012140D01*
X015690Y012298D02*
X019625Y012298D01*
X019625Y012457D02*
X018565Y012457D01*
X018513Y012435D02*
X018167Y012435D01*
X017848Y012568D01*
X017603Y012812D01*
X017471Y013132D01*
X017471Y013478D01*
X017603Y013798D01*
X017848Y014042D01*
X018167Y014175D01*
X018513Y014175D01*
X018833Y014042D01*
X019078Y013798D01*
X019210Y013478D01*
X019210Y013132D01*
X019078Y012812D01*
X018833Y012568D01*
X018513Y012435D01*
X018116Y012457D02*
X015690Y012457D01*
X015738Y012615D02*
X017800Y012615D01*
X017642Y012774D02*
X015800Y012774D01*
X015800Y012932D02*
X017553Y012932D01*
X017488Y013091D02*
X015800Y013091D01*
X015800Y013249D02*
X017471Y013249D01*
X017471Y013408D02*
X015800Y013408D01*
X015800Y013566D02*
X017507Y013566D01*
X017573Y013725D02*
X015800Y013725D01*
X015764Y013883D02*
X017688Y013883D01*
X017847Y014042D02*
X015689Y014042D01*
X015531Y014200D02*
X019625Y014200D01*
X019625Y014042D02*
X018834Y014042D01*
X018993Y013883D02*
X019625Y013883D01*
X019625Y013725D02*
X019108Y013725D01*
X019174Y013566D02*
X019625Y013566D01*
X019625Y013408D02*
X019210Y013408D01*
X019210Y013249D02*
X019625Y013249D01*
X019625Y013091D02*
X019193Y013091D01*
X019128Y012932D02*
X019625Y012932D01*
X019625Y012774D02*
X019039Y012774D01*
X018881Y012615D02*
X019625Y012615D01*
X019625Y014359D02*
X000420Y014359D01*
X000420Y014517D02*
X019625Y014517D01*
X017456Y011030D02*
X015690Y011030D01*
X015690Y010872D02*
X017226Y010872D01*
X017119Y010713D02*
X016361Y010713D01*
X016420Y010555D02*
X017060Y010555D01*
X017060Y010396D02*
X016420Y010396D01*
X016420Y010238D02*
X017094Y010238D01*
X017165Y010079D02*
X016420Y010079D01*
X016420Y009921D02*
X017324Y009921D01*
X018030Y008970D02*
X018130Y008970D01*
X018130Y008811D02*
X018030Y008811D01*
X018030Y008653D02*
X018130Y008653D01*
X018030Y008494D02*
X016420Y008494D01*
X018030Y008336D02*
X018130Y008336D01*
X018130Y008177D02*
X018030Y008177D01*
X018030Y008019D02*
X018130Y008019D01*
X018825Y008019D02*
X018940Y008019D01*
X014650Y010872D02*
X011360Y010872D01*
X011360Y011030D02*
X014650Y011030D01*
X014650Y011189D02*
X011360Y011189D01*
X011360Y011347D02*
X014650Y011347D01*
X014650Y011506D02*
X011360Y011506D01*
X011360Y011664D02*
X014650Y011664D01*
X014650Y011823D02*
X011360Y011823D01*
X011360Y011981D02*
X014650Y011981D01*
X014650Y012140D02*
X011360Y012140D01*
X011360Y012298D02*
X012973Y012298D01*
X013065Y012260D02*
X013315Y012260D01*
X013547Y012356D01*
X013724Y012533D01*
X013820Y012765D01*
X013820Y013795D01*
X013724Y014027D01*
X013547Y014204D01*
X013315Y014300D01*
X013065Y014300D01*
X012833Y014204D01*
X012656Y014027D01*
X012560Y013795D01*
X012560Y012765D01*
X012656Y012533D01*
X012833Y012356D01*
X013065Y012260D01*
X013407Y012298D02*
X014650Y012298D01*
X014650Y012457D02*
X013647Y012457D01*
X013758Y012615D02*
X014602Y012615D01*
X014540Y012774D02*
X013820Y012774D01*
X013820Y012932D02*
X014540Y012932D01*
X014540Y013091D02*
X013820Y013091D01*
X013820Y013249D02*
X014540Y013249D01*
X014540Y013408D02*
X013820Y013408D01*
X013820Y013566D02*
X014540Y013566D01*
X014540Y013725D02*
X013820Y013725D01*
X013784Y013883D02*
X014576Y013883D01*
X014651Y014042D02*
X013709Y014042D01*
X013551Y014200D02*
X014809Y014200D01*
X012829Y014200D02*
X011231Y014200D01*
X011389Y014042D02*
X012671Y014042D01*
X012596Y013883D02*
X011464Y013883D01*
X011500Y013725D02*
X012560Y013725D01*
X012560Y013566D02*
X011500Y013566D01*
X011500Y013408D02*
X012560Y013408D01*
X012560Y013249D02*
X011500Y013249D01*
X011500Y013091D02*
X012560Y013091D01*
X012560Y012932D02*
X011500Y012932D01*
X011500Y012774D02*
X012560Y012774D01*
X012622Y012615D02*
X011438Y012615D01*
X011360Y012457D02*
X012733Y012457D01*
X010509Y014200D02*
X009251Y014200D01*
X009409Y014042D02*
X010351Y014042D01*
X010276Y013883D02*
X009484Y013883D01*
X009520Y013725D02*
X010240Y013725D01*
X010240Y013566D02*
X009520Y013566D01*
X009520Y013408D02*
X010240Y013408D01*
X010240Y013249D02*
X009520Y013249D01*
X009520Y013091D02*
X010240Y013091D01*
X010240Y012932D02*
X009520Y012932D01*
X009520Y012774D02*
X010240Y012774D01*
X010302Y012615D02*
X009458Y012615D01*
X009347Y012457D02*
X010380Y012457D01*
X012061Y010713D02*
X012499Y010713D01*
X012440Y010555D02*
X012120Y010555D01*
X012120Y010396D02*
X012440Y010396D01*
X012440Y010238D02*
X012120Y010238D01*
X012120Y010079D02*
X012440Y010079D01*
X012440Y009921D02*
X012120Y009921D01*
X012120Y009762D02*
X012440Y009762D01*
X012440Y009604D02*
X012120Y009604D01*
X012120Y009445D02*
X012440Y009445D01*
X012440Y009287D02*
X012120Y009287D01*
X012120Y009128D02*
X012440Y009128D01*
X012440Y008970D02*
X012120Y008970D01*
X012120Y008811D02*
X012440Y008811D01*
X012440Y008653D02*
X012120Y008653D01*
X012120Y008494D02*
X012440Y008494D01*
X012440Y008336D02*
X012120Y008336D01*
X012120Y008177D02*
X012440Y008177D01*
X012440Y008019D02*
X012120Y008019D01*
X012024Y007860D02*
X012536Y007860D01*
X001875Y001837D02*
X000915Y001837D01*
X000915Y001679D02*
X001875Y001679D01*
X001875Y001520D02*
X000915Y001520D01*
X000915Y001362D02*
X001875Y001362D01*
X001875Y001203D02*
X000916Y001203D01*
X001075Y001045D02*
X001875Y001045D01*
D24*
X001055Y000555D02*
X002930Y000555D01*
X003180Y000805D01*
X003180Y001430D01*
X001055Y000555D02*
X000555Y001055D01*
X000555Y010055D01*
X000930Y010430D01*
X001555Y010430D01*
X004805Y005305D02*
X004805Y004555D01*
X008626Y003001D02*
X009130Y003505D01*
X009130Y005305D01*
X010382Y003257D02*
X011180Y004055D01*
X013180Y004055D01*
X013430Y004305D01*
X013430Y005305D01*
X012805Y003430D02*
X012120Y002745D01*
X011680Y003430D02*
X011234Y003001D01*
X012352Y001977D02*
X013490Y003115D01*
X013930Y003115D01*
X015055Y003115D01*
X015055Y001995D02*
X015055Y001430D01*
X014578Y000953D01*
X015055Y001995D02*
X017620Y001995D01*
X017680Y002805D02*
X017680Y004330D01*
D25*
X010012Y001977D02*
X007748Y001977D01*
D26*
X014430Y009305D02*
X015180Y008680D01*
X015170Y010920D01*
X015170Y013280D01*
X010880Y009380D02*
X010849Y009173D01*
X010130Y009305D01*
X006430Y009055D02*
X006393Y008908D01*
X005805Y009305D01*
D27*
X011680Y003430D03*
X012805Y003430D03*
M02*
