G75*
%MOIN*%
%OFA0B0*%
%FSLAX24Y24*%
%IPPOS*%
%LPD*%
%AMOC8*
5,1,8,0,0,1.08239X$1,22.5*
%
%ADD10C,0.0000*%
%ADD11C,0.0080*%
%ADD12C,0.0040*%
D10*
X000180Y000180D02*
X000180Y014865D01*
X019865Y014865D01*
X019865Y000180D01*
X000180Y000180D01*
X001050Y013305D02*
X001052Y013355D01*
X001058Y013405D01*
X001068Y013454D01*
X001082Y013502D01*
X001099Y013549D01*
X001120Y013594D01*
X001145Y013638D01*
X001173Y013679D01*
X001205Y013718D01*
X001239Y013755D01*
X001276Y013789D01*
X001316Y013819D01*
X001358Y013846D01*
X001402Y013870D01*
X001448Y013891D01*
X001495Y013907D01*
X001543Y013920D01*
X001593Y013929D01*
X001642Y013934D01*
X001693Y013935D01*
X001743Y013932D01*
X001792Y013925D01*
X001841Y013914D01*
X001889Y013899D01*
X001935Y013881D01*
X001980Y013859D01*
X002023Y013833D01*
X002064Y013804D01*
X002103Y013772D01*
X002139Y013737D01*
X002171Y013699D01*
X002201Y013659D01*
X002228Y013616D01*
X002251Y013572D01*
X002270Y013526D01*
X002286Y013478D01*
X002298Y013429D01*
X002306Y013380D01*
X002310Y013330D01*
X002310Y013280D01*
X002306Y013230D01*
X002298Y013181D01*
X002286Y013132D01*
X002270Y013084D01*
X002251Y013038D01*
X002228Y012994D01*
X002201Y012951D01*
X002171Y012911D01*
X002139Y012873D01*
X002103Y012838D01*
X002064Y012806D01*
X002023Y012777D01*
X001980Y012751D01*
X001935Y012729D01*
X001889Y012711D01*
X001841Y012696D01*
X001792Y012685D01*
X001743Y012678D01*
X001693Y012675D01*
X001642Y012676D01*
X001593Y012681D01*
X001543Y012690D01*
X001495Y012703D01*
X001448Y012719D01*
X001402Y012740D01*
X001358Y012764D01*
X001316Y012791D01*
X001276Y012821D01*
X001239Y012855D01*
X001205Y012892D01*
X001173Y012931D01*
X001145Y012972D01*
X001120Y013016D01*
X001099Y013061D01*
X001082Y013108D01*
X001068Y013156D01*
X001058Y013205D01*
X001052Y013255D01*
X001050Y013305D01*
X017710Y013305D02*
X017712Y013355D01*
X017718Y013405D01*
X017728Y013454D01*
X017742Y013502D01*
X017759Y013549D01*
X017780Y013594D01*
X017805Y013638D01*
X017833Y013679D01*
X017865Y013718D01*
X017899Y013755D01*
X017936Y013789D01*
X017976Y013819D01*
X018018Y013846D01*
X018062Y013870D01*
X018108Y013891D01*
X018155Y013907D01*
X018203Y013920D01*
X018253Y013929D01*
X018302Y013934D01*
X018353Y013935D01*
X018403Y013932D01*
X018452Y013925D01*
X018501Y013914D01*
X018549Y013899D01*
X018595Y013881D01*
X018640Y013859D01*
X018683Y013833D01*
X018724Y013804D01*
X018763Y013772D01*
X018799Y013737D01*
X018831Y013699D01*
X018861Y013659D01*
X018888Y013616D01*
X018911Y013572D01*
X018930Y013526D01*
X018946Y013478D01*
X018958Y013429D01*
X018966Y013380D01*
X018970Y013330D01*
X018970Y013280D01*
X018966Y013230D01*
X018958Y013181D01*
X018946Y013132D01*
X018930Y013084D01*
X018911Y013038D01*
X018888Y012994D01*
X018861Y012951D01*
X018831Y012911D01*
X018799Y012873D01*
X018763Y012838D01*
X018724Y012806D01*
X018683Y012777D01*
X018640Y012751D01*
X018595Y012729D01*
X018549Y012711D01*
X018501Y012696D01*
X018452Y012685D01*
X018403Y012678D01*
X018353Y012675D01*
X018302Y012676D01*
X018253Y012681D01*
X018203Y012690D01*
X018155Y012703D01*
X018108Y012719D01*
X018062Y012740D01*
X018018Y012764D01*
X017976Y012791D01*
X017936Y012821D01*
X017899Y012855D01*
X017865Y012892D01*
X017833Y012931D01*
X017805Y012972D01*
X017780Y013016D01*
X017759Y013061D01*
X017742Y013108D01*
X017728Y013156D01*
X017718Y013205D01*
X017712Y013255D01*
X017710Y013305D01*
D11*
X004523Y003362D02*
X004370Y003516D01*
X004063Y003516D01*
X003909Y003362D01*
X003909Y003209D01*
X004523Y002595D01*
X003909Y002595D01*
X003602Y002748D02*
X002989Y003362D01*
X002989Y002748D01*
X003142Y002595D01*
X003449Y002595D01*
X003602Y002748D01*
X003602Y003362D01*
X003449Y003516D01*
X003142Y003516D01*
X002989Y003362D01*
X002682Y003209D02*
X002375Y003516D01*
X002375Y002595D01*
X002682Y002595D02*
X002068Y002595D01*
X001761Y002748D02*
X001607Y002595D01*
X001300Y002595D01*
X001147Y002748D01*
X001147Y002902D01*
X001300Y003055D01*
X001761Y003055D01*
X001761Y002748D01*
X001761Y003055D02*
X001454Y003362D01*
X001147Y003516D01*
X001147Y001409D02*
X000993Y001255D01*
X000993Y000795D01*
X001300Y000795D02*
X001300Y001255D01*
X001147Y001409D01*
X001300Y001255D02*
X001454Y001409D01*
X001607Y001409D01*
X001607Y000795D01*
X001914Y000948D02*
X002068Y000795D01*
X002374Y000795D01*
X002528Y000948D01*
X002528Y001255D01*
X002374Y001409D01*
X002068Y001409D01*
X001914Y001255D01*
X001914Y000948D01*
X002835Y000795D02*
X003295Y000795D01*
X003449Y000948D01*
X003449Y001255D01*
X003295Y001409D01*
X002835Y001409D01*
X003756Y000948D02*
X003756Y000795D01*
X003909Y000795D01*
X003909Y000948D01*
X003756Y000948D01*
X004216Y000795D02*
X004369Y000948D01*
X004369Y001562D01*
X004216Y001409D02*
X004523Y001409D01*
X004830Y001255D02*
X005137Y001255D01*
X005444Y001255D02*
X005444Y000948D01*
X005597Y000795D01*
X005904Y000795D01*
X006058Y000948D01*
X006058Y001255D01*
X005904Y001409D01*
X005597Y001409D01*
X005444Y001255D01*
X004983Y001562D02*
X004983Y000795D01*
X004983Y001562D02*
X004830Y001716D01*
X006365Y001409D02*
X006825Y001409D01*
X006978Y001255D01*
X006825Y001102D01*
X006518Y001102D01*
X006365Y000948D01*
X006518Y000795D01*
X006978Y000795D01*
X007285Y000948D02*
X007285Y001255D01*
X007439Y001409D01*
X007746Y001409D01*
X007899Y001255D01*
X007899Y000948D01*
X007746Y000795D01*
X007439Y000795D01*
X007285Y000948D01*
X008206Y000795D02*
X008513Y000795D01*
X008360Y000795D02*
X008360Y001716D01*
X008513Y001716D01*
X008820Y001409D02*
X009280Y001102D01*
X008820Y000795D01*
X009280Y000795D02*
X009280Y001716D01*
X009741Y001716D02*
X009741Y001869D01*
X009741Y001409D02*
X009741Y000795D01*
X009894Y000795D02*
X009587Y000795D01*
X010201Y000948D02*
X010201Y001409D01*
X009894Y001409D02*
X009741Y001409D01*
X010201Y000948D02*
X010355Y000795D01*
X010508Y000948D01*
X010662Y000795D01*
X010815Y000948D01*
X010815Y001409D01*
D12*
X014359Y004718D02*
X014820Y004718D01*
X014820Y004948D01*
X014743Y005025D01*
X014590Y005025D01*
X014513Y004948D01*
X014513Y004718D01*
X014590Y005178D02*
X014590Y005485D01*
X014666Y005485D02*
X014359Y005485D01*
X014359Y005638D02*
X014359Y005869D01*
X014436Y005945D01*
X014743Y005945D01*
X014820Y005869D01*
X014820Y005638D01*
X014359Y005638D01*
X014666Y005485D02*
X014820Y005332D01*
X014666Y005178D01*
X014359Y005178D01*
X014436Y006099D02*
X014359Y006176D01*
X014359Y006329D01*
X014436Y006406D01*
X014743Y006406D01*
X014820Y006329D01*
X014820Y006176D01*
X014743Y006099D01*
X014666Y006099D01*
X014590Y006176D01*
X014590Y006406D01*
X014513Y008507D02*
X014513Y008737D01*
X014590Y008814D01*
X014743Y008814D01*
X014820Y008737D01*
X014820Y008507D01*
X014359Y008507D01*
X014359Y008968D02*
X014666Y008968D01*
X014820Y009121D01*
X014666Y009275D01*
X014359Y009275D01*
X014359Y009428D02*
X014359Y009658D01*
X014436Y009735D01*
X014743Y009735D01*
X014820Y009658D01*
X014820Y009428D01*
X014359Y009428D01*
X014590Y009275D02*
X014590Y008968D01*
X014666Y009888D02*
X014820Y010042D01*
X014359Y010042D01*
X014359Y010195D02*
X014359Y009888D01*
X014436Y010349D02*
X014359Y010426D01*
X014359Y010579D01*
X014436Y010656D01*
X014743Y010656D01*
X014436Y010349D01*
X014743Y010349D01*
X014820Y010426D01*
X014820Y010579D01*
X014743Y010656D01*
X004445Y010579D02*
X004445Y010426D01*
X004368Y010349D01*
X004291Y010349D01*
X004215Y010426D01*
X004215Y010579D01*
X004138Y010656D01*
X004061Y010656D01*
X003984Y010579D01*
X003984Y010426D01*
X004061Y010349D01*
X004138Y010349D01*
X004215Y010426D01*
X004215Y010579D02*
X004291Y010656D01*
X004368Y010656D01*
X004445Y010579D01*
X004368Y010195D02*
X004061Y010195D01*
X003984Y010119D01*
X003984Y009888D01*
X004445Y009888D01*
X004445Y010119D01*
X004368Y010195D01*
X004291Y009735D02*
X003984Y009735D01*
X004215Y009735D02*
X004215Y009428D01*
X004291Y009428D02*
X004445Y009582D01*
X004291Y009735D01*
X004291Y009428D02*
X003984Y009428D01*
X004138Y009198D02*
X004138Y008968D01*
X003984Y008968D02*
X004445Y008968D01*
X004445Y009198D01*
X004368Y009275D01*
X004215Y009275D01*
X004138Y009198D01*
X004368Y006406D02*
X004061Y006099D01*
X003984Y006099D01*
X004061Y005945D02*
X004368Y005945D01*
X004445Y005869D01*
X004445Y005638D01*
X003984Y005638D01*
X003984Y005869D01*
X004061Y005945D01*
X004445Y006099D02*
X004445Y006406D01*
X004368Y006406D01*
X004291Y005485D02*
X003984Y005485D01*
X004215Y005485D02*
X004215Y005178D01*
X004291Y005178D02*
X004445Y005332D01*
X004291Y005485D01*
X004291Y005178D02*
X003984Y005178D01*
X004138Y004948D02*
X004138Y004718D01*
X003984Y004718D02*
X004445Y004718D01*
X004445Y004948D01*
X004368Y005025D01*
X004215Y005025D01*
X004138Y004948D01*
M02*
